<?xml version="1.0" encoding="UTF-8" standalone="no"?><!DOCTYPE svg PUBLIC "-//W3C//DTD SVG 1.1//EN" "http://www.w3.org/Graphics/SVG/1.1/DTD/svg11.dtd"><svg width="2px" height="100%" viewBox="0 0 241 240" version="1.1" xmlns="http://www.w3.org/2000/svg" xmlns:xlink="http://www.w3.org/1999/xlink" xml:space="preserve" xmlns:serif="http://www.serif.com/" style="fill-rule:evenodd;clip-rule:evenodd;stroke-linejoin:round;stroke-miterlimit:2;"><g><path d="M240.138,39.206c-0,-21.639 -17.568,-39.206 -39.206,-39.206l-161.588,-0c-21.639,-0 -39.206,17.567 -39.206,39.206l-0,161.588c-0,21.639 17.567,39.206 39.206,39.206l161.588,0c21.638,0 39.206,-17.567 39.206,-39.206l-0,-161.588Z" style="fill:url(#_Linear1);"/><path d="M134.58,41.685c-0,-2.969 -1.179,-5.816 -3.279,-7.915c-2.099,-2.099 -4.946,-3.279 -7.915,-3.279c-2.132,0 -4.364,0 -6.496,0c-2.969,0 -5.816,1.18 -7.916,3.279c-2.099,2.099 -3.278,4.946 -3.278,7.915c-0,29.551 -0,107.404 -0,107.404l28.884,-0l-0,-107.404Z" style="fill:#fff;"/><path d="M120.664,212.185l-14.968,-62.855l28.884,-0.241l-13.916,63.096Z" style="fill:#fff;"/></g><defs><linearGradient id="_Linear1" x1="0" y1="0" x2="1" y2="0" gradientUnits="userSpaceOnUse" gradientTransform="matrix(1.46958e-14,240,-240,1.46958e-14,120.138,-1.77636e-15)"><stop offset="0" style="stop-color:#fff200;stop-opacity:1"/><stop offset="1" style="stop-color:#000f99;stop-opacity:1"/></linearGradient></defs></svg>