<?xml version="1.0" encoding="UTF-8" standalone="no"?><!DOCTYPE svg PUBLIC "-//W3C//DTD SVG 1.1//EN" "http://www.w3.org/Graphics/SVG/1.1/DTD/svg11.dtd"><svg width="100%" height="100px" viewBox="0 0 241 240" version="1.1" xmlns="http://www.w3.org/2000/svg" xmlns:xlink="http://www.w3.org/1999/xlink" xml:space="preserve" xmlns:serif="http://www.serif.com/" style="fill-rule:evenodd;clip-rule:evenodd;stroke-linejoin:round;stroke-miterlimit:2;"><g><path d="M240.88,39.206c0,-21.639 -17.567,-39.206 -39.206,-39.206l-161.588,-0c-21.638,-0 -39.206,17.567 -39.206,39.206l0,161.588c0,21.639 17.568,39.206 39.206,39.206l161.588,0c21.639,0 39.206,-17.567 39.206,-39.206l0,-161.588Z" style="fill:url(#_Linear1);"/><path d="M109.449,30.28c1.234,-5.316 5.972,-9.079 11.431,-9.079c5.459,-0 10.197,3.763 11.431,9.079l16.553,71.322c0.135,0.583 0.356,1.142 0.655,1.66c0.299,0.518 0.674,0.989 1.111,1.397l53.511,49.991c3.989,3.726 4.88,9.71 2.15,14.436c-2.729,4.726 -8.359,6.946 -13.581,5.357l-70.064,-21.331c-0.573,-0.174 -1.168,-0.263 -1.766,-0.263c-0.598,0 -1.193,0.089 -1.766,0.263l-70.064,21.331c-5.222,1.589 -10.851,-0.631 -13.581,-5.357c-2.73,-4.726 -1.838,-10.71 2.15,-14.436l53.511,-49.991c0.438,-0.408 0.812,-0.879 1.111,-1.397c0.299,-0.518 0.52,-1.077 0.655,-1.66l16.553,-71.322Z" style="fill:#d6e1e1;"/><path d="M132.311,209.72c-1.234,5.316 -5.972,9.079 -11.431,9.079c-5.459,0 -10.197,-3.763 -11.431,-9.079l-16.553,-71.322c-0.135,-0.583 -0.356,-1.142 -0.655,-1.66c-0.299,-0.518 -0.673,-0.989 -1.111,-1.397l-53.511,-49.991c-3.988,-3.726 -4.88,-9.71 -2.15,-14.436c2.73,-4.726 8.359,-6.946 13.581,-5.357l70.064,21.331c0.573,0.174 1.168,0.263 1.766,0.263c0.598,-0 1.193,-0.089 1.766,-0.263l70.064,-21.331c5.222,-1.589 10.852,0.631 13.581,5.357c2.73,4.726 1.839,10.71 -2.15,14.436l-53.511,49.991c-0.437,0.408 -0.812,0.879 -1.111,1.397c-0.299,0.518 -0.52,1.077 -0.655,1.66l-16.553,71.322Z" style="fill:#d6e1e1;fill-opacity:0.53;"/></g><defs><linearGradient id="_Linear1" x1="0" y1="0" x2="1" y2="0" gradientUnits="userSpaceOnUse" gradientTransform="matrix(1.46958e-14,240,-240,1.46958e-14,120.88,-1.77636e-15)"><stop offset="0" style="stop-color:#00f1ff;stop-opacity:1"/><stop offset="1" style="stop-color:#003799;stop-opacity:1"/></linearGradient></defs></svg>