<?xml version="1.0" encoding="UTF-8" standalone="no"?><!DOCTYPE svg PUBLIC "-//W3C//DTD SVG 1.1//EN" "http://www.w3.org/Graphics/SVG/1.1/DTD/svg11.dtd"><svg width="100%" height="500px" viewBox="0 0 241 240" version="1.1" xmlns="http://www.w3.org/2000/svg" xmlns:xlink="http://www.w3.org/1999/xlink" xml:space="preserve" xmlns:serif="http://www.serif.com/" style="fill-rule:evenodd;clip-rule:evenodd;stroke-linejoin:round;stroke-miterlimit:2;"><g><path d="M240.966,39.206c0,-21.639 -17.567,-39.206 -39.206,-39.206l-161.588,-0c-21.639,-0 -39.206,17.567 -39.206,39.206l0,161.588c0,21.639 17.567,39.206 39.206,39.206l161.588,0c21.639,0 39.206,-17.567 39.206,-39.206l0,-161.588Z" style="fill:url(#_Linear1);"/><path d="M209.713,66.538l-177.494,-0l-0,95.913c-0,3.315 1.317,6.495 3.662,8.84c2.344,2.344 5.524,3.661 8.84,3.661c32.594,0 119.896,0 152.491,0c3.315,0 6.495,-1.317 8.839,-3.661c2.345,-2.345 3.662,-5.525 3.662,-8.84c0,-28.515 0,-95.913 0,-95.913Z" style="fill:#fff;fill-opacity:0.5;"/><path d="M120.966,141.923l-88.747,-75.385l177.494,-0l-88.747,75.385Z" style="fill:#fff;"/></g><defs><linearGradient id="_Linear1" x1="0" y1="0" x2="1" y2="0" gradientUnits="userSpaceOnUse" gradientTransform="matrix(1.46958e-14,240,-240,1.46958e-14,120.966,-1.77636e-15)"><stop offset="0" style="stop-color:#ff9700;stop-opacity:1"/><stop offset="1" style="stop-color:#991800;stop-opacity:1"/></linearGradient></defs></svg>